# xmcd
#
# Track frame offsets:
#	150
#	17228
#	32895
#	43860
#	56236
#	68612
#	81928
#	95244
#	107306
#	121406
#	135976
#	147568
#	159944
#	172163
#	183128
#	196131
#	207880
#	221510
#	234356
#	243910
#	253464
#	264899
#
# Disc length: 3686 seconds
#
# Revision: 0
# Processed by: cddbd v1.5.1PL0 Copyright (c) Steve Scherf et al.
# Submitted via: dBpowerAMP V4.0
#
DISCID=3b0e6416
DTITLE=The Four Knights - Oh Baby
DYEAR=1954
DGENRE=R&B
TTITLE0=Sentimental Fool
TTITLE1=Walkin' and Whistlin" Blues
TTITLE2=Got Her Off My Mind
TTITLE3=I Go Crazy
TTITLE4=Charmaine
TTITLE5=Cry
TTITLE6=In The Chapel in the Moonlight
TTITLE7=I Wanna Say Hello
TTITLE8=It's No Sin
TTITLE9=The Glory of Love
TTITLE10=I Wish I Had A Girl
TTITLE11=The Way I Feel
TTITLE12=Easy Street
TTITLE13=Oh Happy Day
TTITLE14=A Million Tears
TTITLE15=Tennessee Train
TTITLE16=Baby Doll
TTITLE17=Walkin' in the Sunshine
TTITLE18=I Get So Lonely (When I Dream About You)
TTITLE19=Period
TTITLE20=Anniversary Song
TTITLE21=I Couldn't Stay Away From You
EXTD=
EXTT0=
EXTT1=
EXTT2=
EXTT3=
EXTT4=
EXTT5=
EXTT6=
EXTT7=
EXTT8=
EXTT9=
EXTT10=
EXTT11=
EXTT12=
EXTT13=
EXTT14=
EXTT15=
EXTT16=
EXTT17=
EXTT18=
EXTT19=
EXTT20=
EXTT21=
PLAYORDER=
